<svg xmlns="http://www.w3.org/2000/svg" width="1254" height="1254" viewBox="0 0 1254 1254">
  <path d="M 628 93 L 573 96 L 533 102 L 487 113 L 448 126 L 415 140 L 368 165 L 332 189 L 288 225 L 257 256 L 225 295 L 197 337 L 172 384 L 155 425 L 137 486 L 129 526 L 124 577 L 124 631 L 129 680 L 140 732 L 156 782 L 174 824 L 201 873 L 230 915 L 257 947 L 299 988 L 337 1018 L 374 1042 L 416 1064 L 457 1081 L 511 1097 L 553 1105 L 609 1110 L 662 1109 L 711 1103 L 752 1094 L 797 1080 L 831 1066 L 879 1041 L 917 1016 L 957 984 L 997 944 L 1031 902 L 1057 862 L 1081 816 L 1097 777 L 1110 736 L 1122 680 L 1127 633 L 1127 575 L 1123 533 L 1114 485 L 1098 430 L 1081 388 L 1056 340 L 1035 307 L 998 260 L 960 222 L 918 188 L 873 159 L 823 134 L 771 115 L 719 102 L 678 96 Z M 624 479 L 626 479 L 687 585 L 695 602 L 700 621 L 699 650 L 694 666 L 686 680 L 674 693 L 665 700 L 648 708 L 634 711 L 616 711 L 605 709 L 587 701 L 580 696 L 566 682 L 562 676 L 553 656 L 550 638 L 551 619 L 558 596 Z M 614 168 L 657 169 L 692 173 L 731 181 L 775 195 L 810 210 L 855 235 L 890 260 L 922 288 L 952 320 L 978 354 L 1002 393 L 1023 437 L 1037 477 L 1048 523 L 1054 566 L 1056 604 L 1054 645 L 1045 700 L 1029 755 L 1009 802 L 987 841 L 955 885 L 925 918 L 892 947 L 880 951 L 871 951 L 859 946 L 846 933 L 840 915 L 840 789 L 842 780 L 845 774 L 878 744 L 888 727 L 890 719 L 890 707 L 885 694 L 877 685 L 866 678 L 854 674 L 847 674 L 845 683 L 856 687 L 863 695 L 866 704 L 865 712 L 862 718 L 848 732 L 825 746 L 736 787 L 706 803 L 671 827 L 655 843 L 646 856 L 640 869 L 637 880 L 636 895 L 638 908 L 642 920 L 648 932 L 659 948 L 683 973 L 715 997 L 735 1009 L 763 1023 L 791 1035 L 818 1044 L 819 1048 L 789 1061 L 743 1076 L 689 1087 L 649 1091 L 584 1090 L 538 1083 L 489 1069 L 472 1062 L 444 1047 L 423 1032 L 404 1014 L 386 988 L 381 977 L 375 955 L 375 926 L 382 901 L 390 884 L 399 870 L 413 853 L 446 824 L 474 806 L 500 792 L 554 769 L 622 747 L 708 725 L 813 703 L 826 699 L 836 692 L 840 682 L 840 524 L 837 505 L 829 480 L 850 455 L 862 438 L 869 419 L 869 400 L 866 389 L 858 375 L 848 365 L 836 358 L 819 354 L 775 354 L 775 384 L 792 384 L 802 382 L 823 383 L 832 388 L 841 401 L 841 418 L 834 430 L 815 453 L 813 453 L 801 438 L 785 423 L 753 402 L 753 321 L 767 313 L 772 306 L 774 299 L 774 290 L 770 280 L 763 273 L 752 269 L 498 269 L 489 272 L 479 282 L 476 296 L 478 305 L 481 310 L 489 317 L 497 320 L 497 402 L 466 423 L 447 441 L 438 452 L 435 452 L 413 425 L 409 416 L 409 404 L 411 398 L 419 388 L 432 382 L 475 384 L 476 355 L 425 355 L 409 361 L 392 376 L 386 386 L 382 398 L 381 414 L 383 424 L 394 446 L 421 480 L 415 499 L 411 520 L 411 795 L 409 802 L 405 808 L 373 830 L 340 860 L 325 878 L 313 896 L 311 896 L 273 853 L 252 820 L 232 780 L 217 740 L 206 700 L 200 669 L 196 631 L 196 578 L 200 541 L 208 500 L 222 453 L 238 415 L 256 381 L 281 343 L 307 311 L 339 279 L 368 255 L 413 225 L 450 206 L 479 194 L 533 178 L 574 171 Z" fill="#035339" fill-rule="evenodd"/>
  <path d="M 494 974 L 510 1007 L 529 1034 L 540 1047 L 564 1071 L 586 1089 L 599 1089 L 600 1090 L 646 1090 L 647 1089 L 662 1089 L 663 1088 L 680 1087 L 645 1063 L 608 1033 L 580 1004 L 567 987 L 556 968 L 537 969 L 536 970 L 527 970 L 526 971 L 517 971 L 516 972 L 505 972 L 504 973 L 495 973 Z M 507 867 L 499 880 L 491 901 L 488 915 L 488 922 L 487 923 L 487 944 L 488 945 L 493 945 L 494 944 L 505 944 L 506 943 L 545 941 L 546 939 L 543 923 L 544 902 L 549 884 L 555 873 L 554 872 L 516 869 Z M 633 801 L 614 796 L 607 793 L 600 792 L 577 804 L 555 818 L 537 832 L 525 844 L 540 847 L 570 850 L 589 830 L 612 813 Z M 706 766 L 696 763 L 688 759 L 683 759 L 628 779 L 634 782 L 656 789 L 658 787 L 660 787 L 677 778 Z M 762 744 L 752 739 L 748 739 L 717 749 L 710 750 L 710 751 L 724 758 L 727 758 L 736 754 L 747 751 L 762 745 Z M 806 729 L 799 725 L 777 732 L 770 733 L 770 734 L 779 739 Z M 834 717 L 831 715 L 814 721 L 818 724 L 821 724 L 831 720 Z M 847 706 L 840 710 L 839 712 L 842 714 L 848 709 Z M 850 694 L 850 697 L 852 697 L 852 694 Z" fill="#EFA029" fill-rule="evenodd"/>
</svg>